<svg xmlns="http://www.w3.org/2000/svg" viewBox="0 0 24 24" width="32" height="32" fill="none" stroke="#d19bf7" stroke-width="1.8" stroke-linecap="round" stroke-linejoin="round">
  <!-- Fingerprint icon (lucide-style) -->
  <path d="M2 12C2 6.5 6.5 2 12 2a10 10 0 0 1 10 10"/>
  <path d="M5 19.5C5.5 18 6 15 6 12c0-3.3 2.7-6 6-6 1.7 0 3.2.7 4.3 1.8"/>
  <path d="M17.7 10.7A6 6 0 0 1 18 12a29.1 29.1 0 0 1-.8 6.9"/>
  <path d="M10.9 8.1A4 4 0 0 1 16 12a25 25 0 0 1-1.2 7.4"/>
  <path d="M9 13c0 1-.2 3.4-1 4.9"/>
  <path d="M12 12c0 3-.7 5.2-2 6.8"/>
</svg>
